<?xml version="1.0" encoding="UTF-8" standalone="no"?>
<svg
   xmlns:dc="http://purl.org/dc/elements/1.1/"
   xmlns:cc="http://creativecommons.org/ns#"
   xmlns:rdf="http://www.w3.org/1999/02/22-rdf-syntax-ns#"
   xmlns:svg="http://www.w3.org/2000/svg"
   xmlns="http://www.w3.org/2000/svg"
   xmlns:sodipodi="http://sodipodi.sourceforge.net/DTD/sodipodi-0.dtd"
   xmlns:inkscape="http://www.inkscape.org/namespaces/inkscape"
   viewBox="0 0 591.41962 178.552"
   height="178.552"
   width="591.41962"
   xml:space="preserve"
   id="svg2"
   version="1.1"
   inkscape:version="0.92.3 (2405546, 2018-03-11)"><sodipodi:namedview
     pagecolor="#ffffff"
     bordercolor="#666666"
     borderopacity="1"
     objecttolerance="10"
     gridtolerance="10"
     guidetolerance="10"
     inkscape:pageopacity="0"
     inkscape:pageshadow="2"
     inkscape:window-width="1920"
     inkscape:window-height="1017"
     id="namedview4558"
     showgrid="false"
     inkscape:zoom="1.125"
     inkscape:cx="254.9033"
     inkscape:cy="168.4771"
     inkscape:window-x="-8"
     inkscape:window-y="-8"
     inkscape:window-maximized="1"
     inkscape:current-layer="svg2"
     fit-margin-top="0"
     fit-margin-left="0"
     fit-margin-right="0"
     fit-margin-bottom="0" /><metadata
     id="metadata8"><rdf:RDF><cc:Work
         rdf:about=""><dc:format>image/svg+xml</dc:format><dc:type
           rdf:resource="http://purl.org/dc/dcmitype/StillImage" /><dc:title></dc:title></cc:Work></rdf:RDF></metadata><defs
     id="defs6" /><g
     id="g4727"
     transform="translate(-104.60786,-276.32801)"><path
       inkscape:connector-curvature="0"
       d="m 510.23999,286.66668 c 0,-4.73334 3.85333,-8.58667 8.58666,-8.58667 h 10.82667 c 4.73333,0 8.58667,3.85333 8.58667,8.58667 v 2.34666 c 0,4.73334 -3.85334,8.58667 -8.58667,8.58667 h -10.82667 c -4.73333,0 -8.58666,-3.85333 -8.58666,-8.58667"
       style="fill:#0070c0;fill-opacity:1;fill-rule:evenodd;stroke:none;stroke-width:0.13333333"
       id="path16" /><path
       inkscape:connector-curvature="0"
       d="m 510.23999,286.66668 c 0,-4.73334 3.85333,-8.58667 8.58666,-8.58667 h 10.82667 c 4.73333,0 8.58667,3.85333 8.58667,8.58667 v 2.34666 c 0,4.73334 -3.85334,8.58667 -8.58667,8.58667 h -10.82667 c -4.73333,0 -8.58666,-3.85333 -8.58666,-8.58667 z"
       style="fill:none;stroke:#0070c0;stroke-width:1.27999997;stroke-linecap:butt;stroke-linejoin:miter;stroke-miterlimit:8;stroke-dasharray:none;stroke-opacity:1"
       id="path18" /><path
       inkscape:connector-curvature="0"
       d="m 477.59999,286.66668 c 0,-4.73334 3.85333,-8.58667 8.58666,-8.58667 h 10.82667 c 4.73333,0 8.58667,3.85333 8.58667,8.58667 v 2.34666 c 0,4.73334 -3.85334,8.58667 -8.58667,8.58667 h -10.82667 c -4.73333,0 -8.58666,-3.85333 -8.58666,-8.58667"
       style="fill:#0070c0;fill-opacity:1;fill-rule:evenodd;stroke:none;stroke-width:0.13333333"
       id="path20" /><path
       inkscape:connector-curvature="0"
       d="m 477.59999,286.66668 c 0,-4.73334 3.85333,-8.58667 8.58666,-8.58667 h 10.82667 c 4.73333,0 8.58667,3.85333 8.58667,8.58667 v 2.34666 c 0,4.73334 -3.85334,8.58667 -8.58667,8.58667 h -10.82667 c -4.73333,0 -8.58666,-3.85333 -8.58666,-8.58667 z"
       style="fill:none;stroke:#0070c0;stroke-width:1.27999997;stroke-linecap:butt;stroke-linejoin:miter;stroke-miterlimit:8;stroke-dasharray:none;stroke-opacity:1"
       id="path22" /><path
       inkscape:connector-curvature="0"
       d="m 463.89332,277.76001 c 4.73333,0 8.58667,3.85333 8.58667,8.58667 v 10.82666 c 0,4.73334 -3.85334,8.58667 -8.58667,8.58667 h -2.34666 c -4.73334,0 -8.58667,-3.85333 -8.58667,-8.58667 v -10.82666 c 0,-4.73334 3.85333,-8.58667 8.58667,-8.58667"
       style="fill:#0070c0;fill-opacity:1;fill-rule:evenodd;stroke:none;stroke-width:0.13333333"
       id="path24" /><path
       inkscape:connector-curvature="0"
       d="m 463.89332,277.76001 c 4.73333,0 8.58667,3.85333 8.58667,8.58667 v 10.82666 c 0,4.73334 -3.85334,8.58667 -8.58667,8.58667 h -2.34666 c -4.73334,0 -8.58667,-3.85333 -8.58667,-8.58667 v -10.82666 c 0,-4.73334 3.85333,-8.58667 8.58667,-8.58667 z"
       style="fill:none;stroke:#0070c0;stroke-width:1.27999997;stroke-linecap:butt;stroke-linejoin:miter;stroke-miterlimit:8;stroke-dasharray:none;stroke-opacity:1"
       id="path26" /><path
       inkscape:connector-curvature="0"
       d="m 463.89332,311.84001 c 4.73333,0 8.58667,3.85333 8.58667,8.58667 v 10.82666 c 0,4.73334 -3.85334,8.58667 -8.58667,8.58667 h -2.34666 c -4.73334,0 -8.58667,-3.85333 -8.58667,-8.58667 v -10.82666 c 0,-4.73334 3.85333,-8.58667 8.58667,-8.58667"
       style="fill:#0070c0;fill-opacity:1;fill-rule:evenodd;stroke:none;stroke-width:0.13333333"
       id="path28" /><path
       inkscape:connector-curvature="0"
       d="m 463.89332,311.84001 c 4.73333,0 8.58667,3.85333 8.58667,8.58667 v 10.82666 c 0,4.73334 -3.85334,8.58667 -8.58667,8.58667 h -2.34666 c -4.73334,0 -8.58667,-3.85333 -8.58667,-8.58667 v -10.82666 c 0,-4.73334 3.85333,-8.58667 8.58667,-8.58667 z"
       style="fill:none;stroke:#0070c0;stroke-width:1.27999997;stroke-linecap:butt;stroke-linejoin:miter;stroke-miterlimit:8;stroke-dasharray:none;stroke-opacity:1"
       id="path30" /><path
       inkscape:connector-curvature="0"
       d="m 477.59999,443.30667 c 0,-4.73333 3.85333,-8.58666 8.58666,-8.58666 h 10.82667 c 4.73333,0 8.58667,3.85333 8.58667,8.58666 v 2.34667 c 0,4.73333 -3.85334,8.58667 -8.58667,8.58667 h -10.82667 c -4.73333,0 -8.58666,-3.85334 -8.58666,-8.58667"
       style="fill:#0070c0;fill-opacity:1;fill-rule:evenodd;stroke:none;stroke-width:0.13333333"
       id="path32" /><path
       inkscape:connector-curvature="0"
       d="m 477.59999,443.30667 c 0,-4.73333 3.85333,-8.58666 8.58666,-8.58666 h 10.82667 c 4.73333,0 8.58667,3.85333 8.58667,8.58666 v 2.34667 c 0,4.73333 -3.85334,8.58667 -8.58667,8.58667 h -10.82667 c -4.73333,0 -8.58666,-3.85334 -8.58666,-8.58667 z"
       style="fill:none;stroke:#0070c0;stroke-width:1.27999997;stroke-linecap:butt;stroke-linejoin:miter;stroke-miterlimit:8;stroke-dasharray:none;stroke-opacity:1"
       id="path34" /><path
       inkscape:connector-curvature="0"
       d="m 522.93332,375.04001 c 4.73333,0 8.58667,3.85333 8.58667,8.58667 v 10.82666 c 0,4.73333 -3.85334,8.58667 -8.58667,8.58667 h -2.34667 c -4.73333,0 -8.58666,-3.85334 -8.58666,-8.58667 v -10.82666 c 0,-4.73334 3.85333,-8.58667 8.58666,-8.58667"
       style="fill:#0070c0;fill-opacity:1;fill-rule:evenodd;stroke:none;stroke-width:0.13333333"
       id="path36" /><path
       inkscape:connector-curvature="0"
       d="m 522.93332,375.04001 c 4.73333,0 8.58667,3.85333 8.58667,8.58667 v 10.82666 c 0,4.73333 -3.85334,8.58667 -8.58667,8.58667 h -2.34667 c -4.73333,0 -8.58666,-3.85334 -8.58666,-8.58667 v -10.82666 c 0,-4.73334 3.85333,-8.58667 8.58666,-8.58667 z"
       style="fill:none;stroke:#0070c0;stroke-width:1.27999997;stroke-linecap:butt;stroke-linejoin:miter;stroke-miterlimit:8;stroke-dasharray:none;stroke-opacity:1"
       id="path38" /><path
       inkscape:connector-curvature="0"
       d="m 484.91999,363.04001 c 2.46666,-4.06667 7.78666,-5.36 11.85333,-2.88 l 9.17333,5.57333 c 4.08,2.48 5.37334,7.78667 2.89334,11.85334 l -1.21334,2.01333 c -2.48,4.06667 -7.78666,5.36 -11.85333,2.88 l -9.18667,-5.57333 c -4.06666,-2.48 -5.36,-7.78667 -2.89333,-11.85334"
       style="fill:#0070c0;fill-opacity:1;fill-rule:evenodd;stroke:none;stroke-width:0.13333333"
       id="path40" /><path
       inkscape:connector-curvature="0"
       d="m 484.91999,363.04001 c 2.46666,-4.06667 7.78666,-5.36 11.85333,-2.88 l 9.17333,5.57333 c 4.08,2.48 5.37334,7.78667 2.89334,11.85334 l -1.21334,2.01333 c -2.48,4.06667 -7.78666,5.36 -11.85333,2.88 l -9.18667,-5.57333 c -4.06666,-2.48 -5.36,-7.78667 -2.89333,-11.85334 z"
       style="fill:none;stroke:#0070c0;stroke-width:1.33333325;stroke-linecap:butt;stroke-linejoin:miter;stroke-miterlimit:8;stroke-dasharray:none;stroke-opacity:1"
       id="path42" /><path
       inkscape:connector-curvature="0"
       d="m 455.33332,347.40001 c 2.48,-4.08 7.78667,-5.37333 11.85333,-2.89333 l 9.18667,5.58666 c 4.06667,2.48 5.36,7.78667 2.88,11.85334 l -1.21333,2 c -2.48,4.06666 -7.78667,5.36 -11.85333,2.89333 l -9.18667,-5.58667 c -4.06667,-2.48 -5.36,-7.78666 -2.88,-11.85333"
       style="fill:#0070c0;fill-opacity:1;fill-rule:evenodd;stroke:none;stroke-width:0.13333333"
       id="path44" /><path
       inkscape:connector-curvature="0"
       d="m 455.33332,347.40001 c 2.48,-4.08 7.78667,-5.37333 11.85333,-2.89333 l 9.18667,5.58666 c 4.06667,2.48 5.36,7.78667 2.88,11.85334 l -1.21333,2 c -2.48,4.06666 -7.78667,5.36 -11.85333,2.89333 l -9.18667,-5.58667 c -4.06667,-2.48 -5.36,-7.78666 -2.88,-11.85333 z"
       style="fill:none;stroke:#0070c0;stroke-width:1.33333325;stroke-linecap:butt;stroke-linejoin:miter;stroke-miterlimit:8;stroke-dasharray:none;stroke-opacity:1"
       id="path46" /><path
       inkscape:connector-curvature="0"
       d="m 522.93332,409.76001 c 4.73333,0 8.58667,3.85333 8.58667,8.58666 v 10.82667 c 0,4.73333 -3.85334,8.58667 -8.58667,8.58667 h -2.34667 c -4.73333,0 -8.58666,-3.85334 -8.58666,-8.58667 v -10.82667 c 0,-4.73333 3.85333,-8.58666 8.58666,-8.58666"
       style="fill:#0070c0;fill-opacity:1;fill-rule:evenodd;stroke:none;stroke-width:0.13333333"
       id="path48" /><path
       inkscape:connector-curvature="0"
       d="m 522.93332,409.76001 c 4.73333,0 8.58667,3.85333 8.58667,8.58666 v 10.82667 c 0,4.73333 -3.85334,8.58667 -8.58667,8.58667 h -2.34667 c -4.73333,0 -8.58666,-3.85334 -8.58666,-8.58667 v -10.82667 c 0,-4.73333 3.85333,-8.58666 8.58666,-8.58666 z"
       style="fill:none;stroke:#0070c0;stroke-width:1.27999997;stroke-linecap:butt;stroke-linejoin:miter;stroke-miterlimit:8;stroke-dasharray:none;stroke-opacity:1"
       id="path50" /><path
       inkscape:connector-curvature="0"
       d="m 463.89332,409.76001 c 4.73333,0 8.58667,3.85333 8.58667,8.58666 v 10.82667 c 0,4.73333 -3.85334,8.58667 -8.58667,8.58667 h -2.34666 c -4.73334,0 -8.58667,-3.85334 -8.58667,-8.58667 v -10.82667 c 0,-4.73333 3.85333,-8.58666 8.58667,-8.58666"
       style="fill:#0070c0;fill-opacity:1;fill-rule:evenodd;stroke:none;stroke-width:0.13333333"
       id="path52" /><path
       inkscape:connector-curvature="0"
       d="m 463.89332,409.76001 c 4.73333,0 8.58667,3.85333 8.58667,8.58666 v 10.82667 c 0,4.73333 -3.85334,8.58667 -8.58667,8.58667 h -2.34666 c -4.73334,0 -8.58667,-3.85334 -8.58667,-8.58667 v -10.82667 c 0,-4.73333 3.85333,-8.58666 8.58667,-8.58666 z"
       style="fill:none;stroke:#0070c0;stroke-width:1.27999997;stroke-linecap:butt;stroke-linejoin:miter;stroke-miterlimit:8;stroke-dasharray:none;stroke-opacity:1"
       id="path54" /><path
       inkscape:connector-curvature="0"
       d="m 510.42665,287.92001 h -4.74666"
       style="fill:none;stroke:#0070c0;stroke-width:4.63999987;stroke-linecap:butt;stroke-linejoin:miter;stroke-miterlimit:8;stroke-dasharray:none;stroke-opacity:1"
       id="path56" /><path
       inkscape:connector-curvature="0"
       d="m 477.55999,287.92001 h -5"
       style="fill:none;stroke:#0070c0;stroke-width:4.63999987;stroke-linecap:butt;stroke-linejoin:miter;stroke-miterlimit:8;stroke-dasharray:none;stroke-opacity:1"
       id="path58" /><path
       inkscape:connector-curvature="0"
       d="m 462.79999,305.84001 v 5.98667"
       style="fill:none;stroke:#0070c0;stroke-width:4.63999987;stroke-linecap:butt;stroke-linejoin:miter;stroke-miterlimit:8;stroke-dasharray:none;stroke-opacity:1"
       id="path60" /><path
       inkscape:connector-curvature="0"
       d="m 462.79999,339.92001 v 3.94667"
       style="fill:none;stroke:#0070c0;stroke-width:4.63999987;stroke-linecap:butt;stroke-linejoin:miter;stroke-miterlimit:8;stroke-dasharray:none;stroke-opacity:1"
       id="path62" /><path
       inkscape:connector-curvature="0"
       d="m 474.15999,358.64001 47.01333,28.21333"
       style="fill:none;stroke:#0070c0;stroke-width:4.63999987;stroke-linecap:butt;stroke-linejoin:miter;stroke-miterlimit:8;stroke-dasharray:none;stroke-opacity:1"
       id="path64" /><path
       inkscape:connector-curvature="0"
       d="m 521.83999,403.12001 v 6.74666"
       style="fill:none;stroke:#0070c0;stroke-width:4.63999987;stroke-linecap:butt;stroke-linejoin:miter;stroke-miterlimit:8;stroke-dasharray:none;stroke-opacity:1"
       id="path66" /><path
       inkscape:connector-curvature="0"
       d="m 515.46665,431.92001 -15.06666,10.10666"
       style="fill:none;stroke:#0070c0;stroke-width:4.63999987;stroke-linecap:butt;stroke-linejoin:miter;stroke-miterlimit:8;stroke-dasharray:none;stroke-opacity:1"
       id="path68" /><path
       inkscape:connector-curvature="0"
       d="m 467.11999,431.92001 15.06666,10.10666"
       style="fill:none;stroke:#0070c0;stroke-width:4.63999987;stroke-linecap:butt;stroke-linejoin:miter;stroke-miterlimit:8;stroke-dasharray:none;stroke-opacity:1"
       id="path70" /></g><g
     transform="matrix(1.3333333,0,0,-1.3333333,-104.60786,443.67199)"
     id="g72"><g
   aria-label="DEEP"
   transform="matrix(1,0,0,-1,78.4559,199.97)"
   style="font-variant:normal;font-weight:normal;font-size:165.97999573px;font-family:Lymphnodes;-inkscape-font-specification:Lymphnodes;writing-mode:lr-tb;fill:#000000;fill-opacity:1;fill-rule:nonzero;stroke:none"
   id="text76"><path
     d="m 41.329019,-11.45262 q 1.6598,1.9917602 1.6598,4.4814602 0,3.3195999 -2.32372,5.6433198 -2.32372,2.15773998 -5.47734,2.15773998 h -6.97116 q -5.97528,0 -7.4691,-5.80929988 H 14.9382 Q 13.44438,0.49793999 7.6350798,0.49793999 4.4814599,0.49793999 2.1577399,-1.6598 0,-3.9835199 0,-7.1371398 V -14.27428 q 0,-6.141259 5.9752798,-7.469099 v -6.6392 Q 0,-29.710419 0,-35.851679 v -7.13714 q 0,-6.14126 5.9752798,-7.4691 v -5.31136 Q 0,-57.097119 0,-63.238378 v -7.13714 q 0,-6.14126 5.9752798,-7.4691 v -5.31136 Q 0,-84.483818 0,-90.625078 v -7.137139 q 0,-6.141263 5.9752798,-7.469103 v -5.31136 Q 0,-111.87052 0,-118.01178 v -7.13714 q 0,-3.15362 2.1577399,-5.31136 2.32372,-2.32372 5.4773399,-2.32372 6.3072402,0 7.4691002,6.30724 h 5.643319 q 1.6598,-5.64332 7.4691,-5.64332 h 6.97116 q 3.15362,0 5.47734,2.32372 2.32372,2.15774 2.32372,5.31136 0,2.4897 -1.49382,4.48146 l 3.81754,3.98352 q 2.15774,-1.82578 4.9794,-1.82578 3.15362,0 5.31136,2.32372 2.32372,2.15774 2.32372,5.47734 v 6.97116 q 0,6.141262 -5.97528,7.469102 v 5.31136 q 5.97528,1.32784 5.97528,7.4691 v 7.13714 q 0,6.14126 -5.97528,7.4691 v 6.14126 q 5.97528,1.16186 5.97528,7.469099 v 6.97116 q 0,6.14126 -5.97528,7.4691 v 6.14126 q 5.97528,1.32784 5.97528,7.4691 v 6.97116 q 0,3.153619 -2.32372,5.477339 -2.15774,2.15774 -5.31136,2.15774 -3.65156,0 -5.8093,-2.65568 z m 1.49382,-6.30724 q -0.16598,-0.8299 -0.16598,-1.825779 v -6.97116 q 0,-6.14126 5.97528,-7.4691 v -6.14126 q -5.97528,-1.32784 -5.97528,-7.4691 v -6.97116 q 0,-6.307239 5.97528,-7.469099 v -6.14126 q -5.97528,-1.32784 -5.97528,-7.4691 v -7.13714 q 0,-6.14126 5.97528,-7.4691 v -5.31136 q -5.97528,-1.32784 -5.97528,-7.469102 v -6.97116 q 0,-1.82578 0.66392,-3.3196 l -4.31548,-4.48146 q -1.82578,0.99588 -3.81754,0.99588 h -6.97116 q -6.6392,0 -7.63508,-6.47322 H 15.27016 v 5.31136 q 0,6.14126 -5.9752802,7.4691 v 5.31136 q 5.9752802,1.32784 5.9752802,7.469103 v 7.137139 q 0,6.14126 -5.9752802,7.4691 v 5.31136 q 5.9752802,1.32784 5.9752802,7.4691 v 7.13714 q 0,6.141259 -5.9752802,7.469099 v 5.31136 q 5.9752802,1.32784 5.9752802,7.4691 v 7.13714 q 0,6.14126 -5.9752802,7.4691 v 6.6392 q 5.9752802,1.32784 5.9752802,7.469099 v 5.9752802 h 5.311359 q 1.16186,-6.3072402 7.63508,-6.3072402 h 6.97116 q 1.99176,0 3.65156,0.99588 z"
     id="path4685"
     inkscape:connector-curvature="0" /><path
     d="m 76.133365,-105.23132 q 5.97528,1.32784 5.97528,7.469103 v 7.137139 q 0,6.14126 -5.97528,7.4691 v 5.31136 q 5.97528,1.32784 5.97528,7.4691 v 1.49382 h 5.31136 q 1.16186,-6.14126 7.63508,-6.14126 h 6.971155 q 3.15362,0 5.47734,2.32372 2.32372,2.15774 2.32372,5.31136 0,3.15362 -2.32372,5.47734 -2.32372,2.15774 -5.47734,2.15774 h -6.971155 q -5.97528,0 -7.4691,-5.8093 h -5.47734 v 2.32372 q 0,6.141259 -5.97528,7.469099 v 5.31136 q 5.97528,1.32784 5.97528,7.4691 v 7.13714 q 0,6.14126 -5.97528,7.4691 v 6.6392 q 5.97528,1.32784 5.97528,7.469099 v 5.9752802 h 5.31136 q 1.16186,-6.3072402 7.63508,-6.3072402 h 6.971155 q 3.15362,0 5.47734,2.32372 2.32372,2.15774 2.32372,5.3113602 0,3.3195999 -2.32372,5.6433198 -2.32372,2.15773998 -5.47734,2.15773998 h -6.971155 q -5.97528,0 -7.4691,-5.80929988 h -5.8093 q -1.49382,5.47733989 -7.303119,5.47733989 -3.15362,0 -5.47734,-2.15773999 -2.15774,-2.3237199 -2.15774,-5.4773398 V -14.27428 q 0,-6.141259 5.97528,-7.469099 v -6.6392 q -5.97528,-1.32784 -5.97528,-7.4691 v -7.13714 q 0,-6.14126 5.97528,-7.4691 v -5.31136 q -5.97528,-1.32784 -5.97528,-7.469099 v -7.13714 q 0,-6.14126 5.97528,-7.4691 v -5.31136 q -5.97528,-1.32784 -5.97528,-7.4691 v -7.137139 q 0,-6.141263 5.97528,-7.469103 v -5.31136 q -5.97528,-1.32784 -5.97528,-7.4691 v -7.13714 q 0,-3.15362 2.15774,-5.31136 2.32372,-2.32372 5.47734,-2.32372 6.307239,0 7.469099,6.30724 h 5.64332 q 1.6598,-5.64332 7.4691,-5.64332 h 6.971155 q 3.15362,0 5.47734,2.32372 2.32372,2.15774 2.32372,5.31136 0,3.15362 -2.32372,5.47734 -2.32372,2.15774 -5.47734,2.15774 h -6.971155 q -6.6392,0 -7.63508,-6.47322 h -5.31136 v 5.31136 q 0,6.14126 -5.97528,7.4691 z"
     id="path4687"
     inkscape:connector-curvature="0" /><path
     d="m 130.73249,-105.23132 q 5.97528,1.32784 5.97528,7.469103 v 7.137139 q 0,6.14126 -5.97528,7.4691 v 5.31136 q 5.97528,1.32784 5.97528,7.4691 v 1.49382 h 5.31136 q 1.16186,-6.14126 7.63508,-6.14126 h 6.97116 q 3.15362,0 5.47734,2.32372 2.32372,2.15774 2.32372,5.31136 0,3.15362 -2.32372,5.47734 -2.32372,2.15774 -5.47734,2.15774 h -6.97116 q -5.97528,0 -7.4691,-5.8093 h -5.47734 v 2.32372 q 0,6.141259 -5.97528,7.469099 v 5.31136 q 5.97528,1.32784 5.97528,7.4691 v 7.13714 q 0,6.14126 -5.97528,7.4691 v 6.6392 q 5.97528,1.32784 5.97528,7.469099 v 5.9752802 h 5.31136 q 1.16186,-6.3072402 7.63508,-6.3072402 h 6.97116 q 3.15362,0 5.47734,2.32372 2.32372,2.15774 2.32372,5.3113602 0,3.3195999 -2.32372,5.6433198 -2.32372,2.15773998 -5.47734,2.15773998 h -6.97116 q -5.97528,0 -7.4691,-5.80929988 h -5.8093 q -1.49382,5.47733989 -7.30312,5.47733989 -3.15362,0 -5.47734,-2.15773999 -2.15774,-2.3237199 -2.15774,-5.4773398 V -14.27428 q 0,-6.141259 5.97528,-7.469099 v -6.6392 q -5.97528,-1.32784 -5.97528,-7.4691 v -7.13714 q 0,-6.14126 5.97528,-7.4691 v -5.31136 q -5.97528,-1.32784 -5.97528,-7.469099 v -7.13714 q 0,-6.14126 5.97528,-7.4691 v -5.31136 q -5.97528,-1.32784 -5.97528,-7.4691 v -7.137139 q 0,-6.141263 5.97528,-7.469103 v -5.31136 q -5.97528,-1.32784 -5.97528,-7.4691 v -7.13714 q 0,-3.15362 2.15774,-5.31136 2.32372,-2.32372 5.47734,-2.32372 6.30724,0 7.4691,6.30724 h 5.64332 q 1.6598,-5.64332 7.4691,-5.64332 h 6.97116 q 3.15362,0 5.47734,2.32372 2.32372,2.15774 2.32372,5.31136 0,3.15362 -2.32372,5.47734 -2.32372,2.15774 -5.47734,2.15774 h -6.97116 q -6.6392,0 -7.63508,-6.47322 h -5.31136 v 5.31136 q 0,6.14126 -5.97528,7.4691 z"
     id="path4689"
     inkscape:connector-curvature="0" /><path
     d="m 182.01202,-110.54268 q -5.97528,-1.32784 -5.97528,-7.4691 v -7.13714 q 0,-3.15362 2.15774,-5.31136 2.32372,-2.32372 5.47734,-2.32372 6.30724,0 7.4691,6.30724 h 5.64332 q 1.6598,-5.64332 7.4691,-5.64332 h 6.97116 q 3.15362,0 5.47734,2.32372 2.32372,2.15774 2.32372,5.31136 0,2.4897 -1.49382,4.48146 l 3.81754,3.98352 q 2.15774,-1.82578 4.9794,-1.82578 3.15362,0 5.31136,2.32372 2.32372,2.15774 2.32372,5.47734 v 6.97116 q 0,6.141262 -5.97528,7.469102 v 5.31136 q 5.97528,1.32784 5.97528,7.4691 v 7.13714 q 0,3.15362 -2.32372,5.47734 -2.15774,2.15774 -5.31136,2.15774 -4.31548,0 -6.6392,-3.65156 l -3.98352,1.82578 q 0.66392,1.32784 0.66392,2.65568 0,3.3196 -2.32372,5.64332 -2.15774,2.15774 -5.47734,2.15774 h -6.97116 q -6.14126,0 -7.4691,-6.14126 h -2.82166 v 2.32372 q 0,6.141259 -5.97528,7.469099 v 5.31136 q 5.97528,1.32784 5.97528,7.4691 v 7.13714 q 0,6.14126 -5.97528,7.4691 v 6.6392 q 5.97528,1.32784 5.97528,7.469099 v 7.1371402 q 0,3.1536199 -2.32372,5.4773398 -2.15774,2.15773999 -5.31136,2.15773999 -3.15362,0 -5.47734,-2.15773999 -2.15774,-2.3237199 -2.15774,-5.4773398 V -14.27428 q 0,-6.141259 5.97528,-7.469099 v -6.6392 q -5.97528,-1.32784 -5.97528,-7.4691 v -7.13714 q 0,-6.14126 5.97528,-7.4691 v -5.31136 q -5.97528,-1.32784 -5.97528,-7.469099 v -7.13714 q 0,-6.14126 5.97528,-7.4691 v -5.31136 q -5.97528,-1.32784 -5.97528,-7.4691 v -7.137139 q 0,-6.141263 5.97528,-7.469103 z m 3.3196,5.31136 q 5.97528,1.32784 5.97528,7.469103 v 7.137139 q 0,6.14126 -5.97528,7.4691 v 5.31136 q 5.97528,1.32784 5.97528,7.4691 v 1.49382 h 2.82166 q 1.32784,-5.97528 7.4691,-5.97528 h 6.97116 q 3.15362,0 5.31136,2.15774 l 4.81342,-2.15774 q 0,-0.49794 0,-0.8299 v -7.13714 q 0,-6.14126 5.97528,-7.4691 v -5.31136 q -5.97528,-1.32784 -5.97528,-7.469102 v -6.97116 q 0,-1.82578 0.66392,-3.3196 l -4.31548,-4.48146 q -1.82578,0.99588 -3.81754,0.99588 h -6.97116 q -6.6392,0 -7.63508,-6.47322 h -5.31136 v 5.31136 q 0,6.14126 -5.97528,7.4691 z"
     id="path4691"
     inkscape:connector-curvature="0" /></g>
</g><g
     transform="matrix(1.3333333,0,0,-1.3333333,-104.60786,443.67199)"
     id="g78"><g
   aria-label="00"
   transform="matrix(1,0,0,-1,410.18,199.97)"
   style="font-variant:normal;font-weight:normal;font-size:165.97999573px;font-family:Lymphnodes;-inkscape-font-specification:Lymphnodes;writing-mode:lr-tb;fill:#0070c0;fill-opacity:1;fill-rule:nonzero;stroke:none"
   id="text82"><path
     d="m 14.1083,-114.36022 q 1.16186,1.99176 1.16186,4.31548 v 6.97116 q 0,6.141262 -5.9752802,7.469102 v 5.31136 q 5.9752802,1.32784 5.9752802,7.4691 v 7.13714 q 0,6.14126 -5.9752802,7.4691 v 6.14126 q 5.9752802,1.16186 5.9752802,7.469099 v 6.97116 q 0,6.14126 -5.9752802,7.4691 v 6.14126 q 5.9752802,1.32784 5.9752802,7.4691 v 6.97116 q 0,1.493819 -0.49794,2.987639 l 2.98764,2.98764 q 1.6598,-0.99588 3.485579,-0.99588 h 7.13714 q 1.99176,0 3.65156,0.99588 l 3.98352,-4.1495 q -0.33196,-0.8299 -0.33196,-1.825779 v -6.97116 q 0,-6.14126 6.14126,-7.4691 v -6.14126 q -6.14126,-1.32784 -6.14126,-7.4691 v -6.97116 q 0,-6.307239 6.14126,-7.469099 v -6.14126 q -6.14126,-1.32784 -6.14126,-7.4691 v -7.13714 q 0,-6.14126 6.14126,-7.4691 v -5.31136 q -6.14126,-1.32784 -6.14126,-7.469102 v -6.97116 q 0,-1.82578 0.8299,-3.3196 l -4.48146,-4.48146 q -1.6598,0.99588 -3.65156,0.99588 h -7.13714 q -1.991759,0 -3.651559,-0.99588 z m 0.99588,-5.64332 q -1.49382,-1.99176 -1.49382,-4.48146 0,-3.15362 2.15774,-5.31136 2.32372,-2.32372 5.477339,-2.32372 h 7.13714 q 3.15362,0 5.31136,2.32372 2.32372,2.15774 2.32372,5.31136 0,2.4897 -1.49382,4.48146 l 3.98352,3.98352 q 2.15774,-1.82578 4.9794,-1.82578 3.15362,0 5.31136,2.32372 2.32372,2.15774 2.32372,5.47734 v 6.97116 q 0,6.141262 -6.14126,7.469102 v 5.31136 q 6.14126,1.32784 6.14126,7.4691 v 7.13714 q 0,6.14126 -6.14126,7.4691 v 6.14126 q 6.14126,1.16186 6.14126,7.469099 v 6.97116 q 0,6.14126 -6.14126,7.4691 v 6.14126 q 6.14126,1.32784 6.14126,7.4691 v 6.97116 q 0,3.153619 -2.32372,5.477339 -2.15774,2.15774 -5.31136,2.15774 -3.65156,0 -5.97528,-2.65568 l -2.98764,3.15362 q 1.49382,1.9917602 1.49382,4.4814602 0,3.3195999 -2.32372,5.6433198 -2.15774,2.15773998 -5.31136,2.15773998 h -7.13714 q -3.153619,0 -5.477339,-2.15773998 -2.15774,-2.3237199 -2.15774,-5.6433198 0,-2.4897 1.6598,-4.4814602 l -2.4897,-2.4897 q -2.15774,1.99176 -5.1453802,1.99176 -3.1536199,0 -5.4773399,-2.15774 Q 0,-16.43202 0,-19.585639 v -6.97116 q 0,-6.14126 5.9752798,-7.4691 v -6.14126 Q 0,-41.494999 0,-47.636259 v -6.97116 q 0,-6.307239 5.9752798,-7.469099 v -6.14126 Q 0,-69.545618 0,-75.686878 v -7.13714 q 0,-6.14126 5.9752798,-7.4691 v -5.31136 Q 0,-96.932318 0,-103.07358 v -6.97116 q 0,-3.3196 2.1577399,-5.47734 2.32372,-2.32372 5.4773399,-2.32372 2.1577399,0 4.1495002,1.16186 z"
     id="path4694"
     inkscape:connector-curvature="0" /><path
     d="m 74.827095,-114.36022 q 1.16186,1.99176 1.16186,4.31548 v 6.97116 q 0,6.141262 -5.975279,7.469102 v 5.31136 q 5.975279,1.32784 5.975279,7.4691 v 7.13714 q 0,6.14126 -5.975279,7.4691 v 6.14126 q 5.975279,1.16186 5.975279,7.469099 v 6.97116 q 0,6.14126 -5.975279,7.4691 v 6.14126 q 5.975279,1.32784 5.975279,7.4691 v 6.97116 q 0,1.493819 -0.49794,2.987639 l 2.98764,2.98764 q 1.6598,-0.99588 3.48558,-0.99588 h 7.13714 q 1.99176,0 3.65156,0.99588 l 3.98352,-4.1495 q -0.33196,-0.8299 -0.33196,-1.825779 v -6.97116 q 0,-6.14126 6.141255,-7.4691 v -6.14126 q -6.141255,-1.32784 -6.141255,-7.4691 v -6.97116 q 0,-6.307239 6.141255,-7.469099 v -6.14126 q -6.141255,-1.32784 -6.141255,-7.4691 v -7.13714 q 0,-6.14126 6.141255,-7.4691 v -5.31136 q -6.141255,-1.32784 -6.141255,-7.469102 v -6.97116 q 0,-1.82578 0.8299,-3.3196 l -4.48146,-4.48146 q -1.6598,0.99588 -3.65156,0.99588 h -7.13714 q -1.99176,0 -3.65156,-0.99588 z m 0.99588,-5.64332 q -1.49382,-1.99176 -1.49382,-4.48146 0,-3.15362 2.15774,-5.31136 2.32372,-2.32372 5.47734,-2.32372 h 7.13714 q 3.15362,0 5.31136,2.32372 2.32372,2.15774 2.32372,5.31136 0,2.4897 -1.49382,4.48146 l 3.98352,3.98352 q 2.157735,-1.82578 4.979395,-1.82578 3.15362,0 5.31136,2.32372 2.32372,2.15774 2.32372,5.47734 v 6.97116 q 0,6.141262 -6.14126,7.469102 v 5.31136 q 6.14126,1.32784 6.14126,7.4691 v 7.13714 q 0,6.14126 -6.14126,7.4691 v 6.14126 q 6.14126,1.16186 6.14126,7.469099 v 6.97116 q 0,6.14126 -6.14126,7.4691 v 6.14126 q 6.14126,1.32784 6.14126,7.4691 v 6.97116 q 0,3.153619 -2.32372,5.477339 -2.15774,2.15774 -5.31136,2.15774 -3.65156,0 -5.975275,-2.65568 l -2.98764,3.15362 q 1.49382,1.9917602 1.49382,4.4814602 0,3.3195999 -2.32372,5.6433198 -2.15774,2.15773998 -5.31136,2.15773998 h -7.13714 q -3.15362,0 -5.47734,-2.15773998 -2.15774,-2.3237199 -2.15774,-5.6433198 0,-2.4897 1.6598,-4.4814602 l -2.4897,-2.4897 q -2.157739,1.99176 -5.145379,1.99176 -3.15362,0 -5.47734,-2.15774 -2.15774,-2.32372 -2.15774,-5.477339 v -6.97116 q 0,-6.14126 5.97528,-7.4691 v -6.14126 q -5.97528,-1.32784 -5.97528,-7.4691 v -6.97116 q 0,-6.307239 5.97528,-7.469099 v -6.14126 q -5.97528,-1.32784 -5.97528,-7.4691 v -7.13714 q 0,-6.14126 5.97528,-7.4691 v -5.31136 q -5.97528,-1.32784 -5.97528,-7.469102 v -6.97116 q 0,-3.3196 2.15774,-5.47734 2.32372,-2.32372 5.47734,-2.32372 2.15774,0 4.149499,1.16186 z"
     id="path4696"
     inkscape:connector-curvature="0" /></g>
</g></svg>